HIERARCHY
ROOT Hips
{
    OFFSET 0.000000 0.000000 0.000000
    CHANNELS 6 Xposition Yposition Zposition Zrotation Xrotation Yrotation
    JOINT Spine
    {
        OFFSET -0.000000 7.384703 0.000000
        CHANNELS 3 Zrotation Xrotation Yrotation
        JOINT Spine1
        {
            OFFSET -0.000000 22.520039 0.000000
            CHANNELS 3 Zrotation Xrotation Yrotation
            JOINT Neck
            {
                OFFSET -0.000000 22.427553 2.038868
                CHANNELS 3 Zrotation Xrotation Yrotation
                JOINT Head
                {
                    OFFSET -0.000000 12.608030 -1.801147
                    CHANNELS 3 Zrotation Xrotation Yrotation
                    End Site
                    {
                        OFFSET -0.000000 22.514339 0.000000
                    }
                }
            }
            JOINT LeftShoulder
            {
                OFFSET 3.702039 19.556332 -0.329131
                CHANNELS 3 Zrotation Xrotation Yrotation
                JOINT LeftArm
                {
                    OFFSET 13.708566 0.000000 0.000000
                    CHANNELS 3 Zrotation Xrotation Yrotation
                    JOINT LeftForeArm
                    {
                        OFFSET 25.930668 0.000000 0.000000
                        CHANNELS 3 Zrotation Xrotation Yrotation
                        JOINT LeftHand
                        {
                            OFFSET 23.509682 0.000000 0.000000
                            CHANNELS 3 Zrotation Xrotation Yrotation
                            End Site
                            {
                                OFFSET 13.508604 0.000000 0.000000
                            }
                        }
                    }
                }
            }
            JOINT RightShoulder
            {
                OFFSET -3.486946 19.556332 -0.329131
                CHANNELS 3 Zrotation Xrotation Yrotation
                JOINT RightArm
                {
                    OFFSET -13.708566 0.000000 0.000000
                    CHANNELS 3 Zrotation Xrotation Yrotation
                    JOINT RightForeArm
                    {
                        OFFSET -25.930668 0.000000 0.000000
                        CHANNELS 3 Zrotation Xrotation Yrotation
                        JOINT RightHand
                        {
                            OFFSET -23.509682 0.000000 0.000000
                            CHANNELS 3 Zrotation Xrotation Yrotation
                            End Site
                            {
                                OFFSET -13.508604 0.000000 0.000000
                            }
                        }
                    }
                }
            }
        }
    }
    JOINT LeftUpLeg
    {
        OFFSET 9.005735 0.000000 0.000000
        CHANNELS 3 Zrotation Xrotation Yrotation
        JOINT LeftLeg
        {
            OFFSET -0.000000 -37.338741 0.000000
            CHANNELS 3 Zrotation Xrotation Yrotation
            JOINT LeftFoot
            {
                OFFSET -0.000000 -36.154961 0.000000
                CHANNELS 3 Zrotation Xrotation Yrotation
                JOINT LeftToeBase
                {
                    OFFSET -0.000000 -5.853728 13.508604
                    CHANNELS 3 Zrotation Xrotation Yrotation
                    End Site
                    {
                        OFFSET -0.000000 0.000000 3.602294
                    }
                }
            }
        }
    }
    JOINT RightUpLeg
    {
        OFFSET -9.005735 0.000000 0.000000
        CHANNELS 3 Zrotation Xrotation Yrotation
        JOINT RightLeg
        {
            OFFSET -0.000000 -37.338741 0.000000
            CHANNELS 3 Zrotation Xrotation Yrotation
            JOINT RightFoot
            {
                OFFSET -0.000000 -36.154961 0.000000
                CHANNELS 3 Zrotation Xrotation Yrotation
                JOINT RightToeBase
                {
                    OFFSET -0.000000 -5.853728 13.508604
                    CHANNELS 3 Zrotation Xrotation Yrotation
                    End Site
                    {
                        OFFSET -0.000000 0.000000 3.602294
                    }
                }
            }
        }
    }
}
MOTION
Frames:    8
Frame Time:    0.004000
24.964514    119.884956    -61.101349    1.970257    13.735595    4.284119    -4.223332    -1.554290    -0.057232    1.186876    -8.547523    0.098090    1.828766    30.826893    -0.226411    -4.024114    -11.479583    -0.936178    9.750523    -3.262229    -9.972875    -34.822914    14.348089    -5.994696    32.906940    -17.251627    -39.521214    -0.148970    -5.287856    -14.176263    -9.062883    -6.661963    4.835423    24.919094    15.837460    26.274719    -4.933214    -4.811917    29.374855    -26.826912    -6.799004    13.727186    4.104697    -34.934597    6.417413    27.037842    84.523918    -15.028868    -7.528355    32.897163    -8.352613    0.000000    0.000000    0.000000    -9.103330    -25.843153    -6.092599    68.562614    82.622490    -67.112831    16.089142    23.304619    -9.962025    0.000000    0.000000    0.000000    
25.020908    120.085701    -60.772537    2.017511    13.716332    4.184293    -4.182980    -1.368049    -0.010320    1.089998    -8.607622    0.123280    1.838330    31.022335    -0.216711    -4.022311    -11.795399    -0.932979    9.635551    -2.972766    -9.591866    -35.366486    14.316024    -5.890632    32.010460    -16.130239    -38.818974    -0.127948    -4.704405    -14.248000    -8.674635    -6.350200    4.687092    25.011293    16.278599    26.404377    -4.805314    -4.498102    28.338223    -25.942259    -6.474781    13.816670    4.121328    -35.453880    6.525156    31.521648    85.345963    -18.753042    -6.997167    32.097317    -9.345737    0.000000    0.000000    0.000000    -9.172802    -26.341553    -6.219955    77.089897    83.227081    -75.779671    15.532195    22.305368    -9.419429    0.000000    0.000000    0.000000    
25.068092    120.272255    -60.451328    2.029580    13.694081    4.056174    -4.215410    -1.239872    0.092217    1.213316    -8.518200    0.228601    1.744642    31.068836    -0.223027    -3.983189    -12.049514    -0.950783    9.294001    -2.749571    -9.348278    -35.821976    14.464563    -5.703746    31.368080    -15.225889    -37.982887    -0.499202    -4.232511    -14.363110    -8.442479    -6.218428    4.471679    25.143070    16.579103    26.296696    -4.166684    -4.114819    27.645737    -25.896544    -6.293507    13.900390    4.210633    -36.004581    7.046214    42.513271    85.963127    -29.594212    -6.774628    31.101839    -9.551311    0.000000    0.000000    0.000000    -9.186543    -26.829206    -6.244895    86.196365    83.571625    -84.927414    14.722852    21.140364    -9.038205    0.000000    0.000000    0.000000    
25.124371    120.445229    -60.129177    2.073320    13.691199    3.933177    -4.275034    -1.111713    0.169344    1.352759    -8.412935    0.310355    1.584274    31.000013    -0.231380    -3.932927    -12.203546    -0.976133    8.963928    -2.665042    -9.028957    -36.356476    14.684093    -5.466459    30.667259    -14.247904    -37.125748    -0.776668    -3.712890    -14.554424    -8.256569    -6.021439    4.228961    25.290447    16.821163    26.281113    -3.464265    -3.733240    26.939138    -25.925419    -6.115022    13.915758    4.242047    -36.541080    7.269222    53.264927    86.604546    -40.593990    -6.758285    29.868320    -9.363713    0.000000    0.000000    0.000000    -9.257500    -27.420187    -6.653709    96.916260    84.005569    -95.535889    13.864746    20.098795    -8.909447    0.000000    0.000000    0.000000    
25.175959    120.601067    -59.814919    2.109228    13.699473    3.813373    -4.252219    -0.966369    0.223650    1.305918    -8.349895    0.354724    1.566770    31.004990    -0.201967    -3.910118    -12.458106    -0.952132    8.778050    -2.375684    -8.642519    -36.735516    14.526774    -5.296186    29.447283    -13.144363    -36.717678    -0.603756    -3.162982    -14.561500    -7.952030    -5.757802    4.043796    25.410589    17.127840    26.274836    -3.067186    -3.242869    26.284874    -25.076519    -5.587006    13.720075    4.283495    -37.124706    7.644125    69.519661    86.945587    -57.494080    -7.091943    28.628590    -8.539134    0.000000    0.000000    0.000000    -9.294131    -27.924051    -6.379370    105.699417    83.619423    -104.398567    13.558998    18.768385    -8.839016    0.000000    0.000000    0.000000    
25.232374    120.735695    -59.494995    2.137715    13.693190    3.682570    -4.278440    -0.873624    0.289940    1.398029    -8.156853    0.422399    1.477503    30.916862    -0.195399    -3.903365    -12.656098    -0.965456    8.444229    -2.241354    -8.314110    -37.338406    15.083026    -5.144596    29.144529    -12.473563    -35.485249    -0.989977    -2.891095    -14.579828    -7.743810    -5.724554    3.939755    25.638649    17.575640    26.052326    -2.525709    -2.953822    25.734186    -24.877142    -5.362100    13.494376    4.336967    -37.672657    7.855406    85.393066    87.140831    -73.199348    -6.843440    27.661289    -8.825183    0.000000    0.000000    0.000000    -9.356424    -28.463232    -6.412404    114.153709    83.270340    -112.987175    13.445272    17.777502    -9.025266    0.000000    0.000000    0.000000    
25.289118    120.857834    -59.184074    2.206341    13.689237    3.550018    -4.332089    -0.722056    0.354071    1.458511    -8.052612    0.484097    1.349988    30.878202    -0.173025    -3.813926    -12.890876    -0.946185    8.215810    -1.815898    -7.882238    -37.638821    14.906906    -5.217098    27.867857    -11.340241    -34.922356    -0.749532    -2.357212    -14.481113    -7.545353    -5.367389    3.716281    25.790466    17.815323    26.103649    -2.033544    -2.559638    25.081175    -24.281292    -5.040006    13.588144    4.328710    -38.208523    8.120195    99.834831    87.040901    -87.261452    -6.527848    26.791094    -9.341825    0.000000    0.000000    0.000000    -9.450963    -29.054680    -6.814434    124.323776    83.209244    -122.976578    13.080584    16.719570    -8.993082    0.000000    0.000000    0.000000    
25.353390    120.963081    -58.874928    2.205515    13.688862    3.430809    -4.290686    -0.620921    0.421822    1.486068    -7.836905    0.546807    1.368630    30.637838    -0.200340    -3.906702    -12.905383    -0.999873    7.903933    -1.751610    -7.682833    -38.387112    15.754574    -4.869659    27.803471    -10.854896    -33.458931    -1.229113    -2.218950    -14.782286    -7.318438    -5.090433    3.554197    25.963627    18.170259    26.065386    -1.599990    -2.261445    24.467974    -23.777060    -4.708207    13.226862    4.388489    -38.783451    8.344300    113.905846    86.816544    -101.513268    -6.688891    25.836811    -9.049373    0.000000    0.000000    0.000000    -9.479220    -29.591085    -6.552168    129.864609    82.490883    -128.433075    12.102636    15.402449    -8.634469    0.000000    0.000000    0.000000    
